<?xml version="1.0" encoding="iso-8859-1"?>
<!-- Generator: Adobe Illustrator 18.0.0, SVG Export Plug-In . SVG Version: 6.00 Build 0)  -->
<!DOCTYPE svg PUBLIC "-//W3C//DTD SVG 1.1//EN" "http://www.w3.org/Graphics/SVG/1.1/DTD/svg11.dtd">
<svg version="1.1" id="Capa_1" xmlns="http://www.w3.org/2000/svg" xmlns:xlink="http://www.w3.org/1999/xlink" x="0px" y="0px"
	 viewBox="0 0 292.684 292.684" style="enable-background:new 0 0 292.684 292.684;" xml:space="preserve">
<g>
	<path d="M187.241,231.267l43.644,43.692c4.345,4.758,10.699,4.645,10.699,4.645h47.5c4.188,0,4.375-3.595,2.333-5.595
		c-0.426-0.417-44.387-44.457-58.427-58.497c-4.559-4.559-9.741-2.424-9.741-2.424l-34.703,11.582
		C188.546,224.669,182.71,226.736,187.241,231.267z"/>
	<path d="M225.895,188.735L60.889,23.541c-6.738-6.746-15.7-10.461-25.23-10.461c-9.528,0-18.487,3.714-25.222,10.458
		C-3.479,37.469-3.479,60.132,10.435,74.059l138.425,138.585c7.065,7.065,14.709,3.905,14.709,3.905l60.856-20.311
		C231.917,193.967,225.895,188.735,225.895,188.735z M60.883,74.063c3.052-3.047,7.987-3.045,11.033,0.003l30.741,30.781
		c3.045,3.049,3.043,7.991-0.004,11.039c-1.523,1.521-3.517,2.283-5.514,2.283c-1.997,0-3.996-0.764-5.518-2.286L60.88,85.102
		C57.834,82.05,57.836,77.111,60.883,74.063z"/>
</g>
<g>
</g>
<g>
</g>
<g>
</g>
<g>
</g>
<g>
</g>
<g>
</g>
<g>
</g>
<g>
</g>
<g>
</g>
<g>
</g>
<g>
</g>
<g>
</g>
<g>
</g>
<g>
</g>
<g>
</g>
</svg>
