<?xml version="1.0" encoding="UTF-8"?>
<!-- Created with Inkscape (http://www.inkscape.org/) -->
<svg width="638" height="123" version="1.1" viewBox="0 0 638 123" xmlns="http://www.w3.org/2000/svg" xmlns:cc="http://creativecommons.org/ns#" xmlns:dc="http://purl.org/dc/elements/1.1/" xmlns:rdf="http://www.w3.org/1999/02/22-rdf-syntax-ns#">
 <metadata>
  <rdf:RDF>
   <cc:Work rdf:about="">
    <dc:format>image/svg+xml</dc:format>
    <dc:type rdf:resource="http://purl.org/dc/dcmitype/StillImage"/>
    <dc:title/>
   </cc:Work>
  </rdf:RDF>
 </metadata>
 <path d="m468.98 113.29c-2.4484-0.89688-6.5052-3.6963-9.0281-6.23-12.204-12.256-10.105-32.808 4.3499-42.594 3.955-2.6775 4.3672-3.319 3.9169-6.0944-0.40407-2.49 0.0106-3.5062 2.1022-5.1514 2.8798-2.2652 3.2775-3.2617 1.3018-3.2617-1.8438 0-7.3709-5.9625-8.6348-9.3151-3.7813-10.03 3.6314-22.134 15.126-24.699 4.6734-1.043 6.0313-0.94273 11.281 0.83264 7.32 2.4755 9.5319 1.6973 9.5319-3.3537 0-3.9167 1.3709-4.5089 3.0734-1.3277 1.3782 2.5751 0.57462 8.4891-1.4588 10.737-1.1804 1.3048-1.2633 2.4161-0.41988 5.626 1.5532 5.9111-0.41541 11.985-5.546 17.111-3.5735 3.5704-5.234 4.3864-11.975 5.8846-12.039 2.6756-11.735 6.7543 0.59299 7.9524 16.925 1.6448 26.733 11.07 26.733 25.69 0 12.184-4.9458 20.794-15.129 26.336-4.4183 2.4047-6.7373 2.9599-13.359 3.1981-5.54 0.19929-9.3844-0.21436-12.459-1.3405zm26.707-6.4573c2.6332-1.2747 5.4386-3.7304 7.0554-6.1761 2.2905-3.4647 2.6783-5.0965 2.6449-11.129-0.047-8.4974-2.3588-13.614-8.543-18.907-7.6075-6.5117-20.035-8.6088-28.426-4.7967-14.109 6.4097-16.22 26.264-3.9392 37.047 8.2127 7.2108 21.114 8.8488 31.208 3.9622zm-7.2831-60.046c4.3269-1.9715 6.8412-7.1602 6.2832-12.967-0.74897-7.7947-6.0715-13.557-13.435-14.545-7.9944-1.0723-13.33 4.2873-13.322 13.383 9e-3 11.038 10.845 18.515 20.474 14.128zm-407.48 58.672c-1.0196-1.2285-0.95124-1.5 0.37756-1.5 0.97879 0 1.6224-0.8287 1.6224-2.0889 0-2.0102-0.11593-1.9913-3.0767 0.5-3.7608 3.1645-6.4562 3.4803-2.8505 0.33392 1.415-1.2348 3.0805-2.9396 3.7011-3.7885 0.96969-1.3265 0.64318-1.4868-2.3228-1.1406-1.9976 0.23321-3.4511-0.03892-3.4511-0.64615 0-0.57697 1.6875-1.1887 3.75-1.3594 3.1592-0.26146 3.7375-0.66487 3.6706-2.5604-0.04393-1.2448 0.5145-2.25 1.25-2.25 0.73117 0 1.3294 0.91973 1.3294 2.0438 0 1.3498 0.55905 1.9441 1.6463 1.75 0.90544-0.16161 1.8429 0.26866 2.0833 0.95616 0.26192 0.74908-0.42844 1.25-1.7227 1.25-1.8599 0-2.1357 0.52067-1.9864 3.75 0.09535 2.0625 0.12976 4.3125 0.07647 5-0.13338 1.7206-2.5856 1.571-4.0969-0.25zm78.528-0.75c-0.22525-0.6875-0.55283-3.3996-0.72796-6.027-0.2558-3.8374-0.0216-4.7149 1.1909-4.4614 1.0692 0.22354 1.4452 1.3978 1.2892 4.027-0.1212 2.0437 0.24719 3.7114 0.81983 3.7114 0.57195 0 3.0769-1.4015 5.5665-3.1144 3.7727-2.5957 4.3415-2.7685 3.4152-1.0377-1.0115 1.8901-9.1101 8.1521-10.543 8.1521-0.33067 0-0.78551-0.5625-1.0108-1.25zm80.139 0.58333c-1.3031-1.3031-0.62743-2.0912 2.2941-2.6755 1.6284-0.32569 4.7784-2.2343 7-4.2414 2.2216-2.0071 4.0392-3.3423 4.0392-2.9671 0 1.8412-2.5056 4.9043-6.202 7.582-4.1051 2.9737-5.885 3.5483-7.1313 2.302zm81.333-0.83333c0-0.90946 0.9288-1.5 2.3592-1.5 1.3366 0 4.3709-1.7707 7-4.085 4.921-4.3316 5.9521-4.3975 2.6249-0.16769-4.5155 5.7405-11.984 9.3256-11.984 5.7527zm-0.55887-6.0226c-1.8517-1.4525-1.8064-1.5101 0.98175-1.25 1.6076 0.14995 3.1076 0.83514 3.3333 1.5226 0.56739 1.7279-1.969 1.5677-4.3151-0.27264zm-79.941-2.4774c-1.8085-1.9983-1.0654-2.5379 1.9182-1.393 1.6343 0.62713 2.2349 3.393 0.73678 3.393-0.46476 0-1.6595-0.9-2.655-2zm83 0.23469c-1.5671-1.1513-1.646-3.2347-0.12244-3.2347 1.696 0 3.8484 2.4407 2.9471 3.342-0.83986 0.83986-1.5734 0.81199-2.8247-0.10732zm7.0648-3.1299c-0.3043-0.49237 0.18355-1.178 1.0841-1.5235 1.9468-0.74707 2.8089-0.13101 1.8922 1.3522-0.80368 1.3004-2.2279 1.3824-2.9764 0.17132zm-299.87-18.497c-8.9823-3.3267-16.449-11.28-18.822-20.049-1.5028-5.5523-0.57278-15.272 1.9309-20.18 6.8404-13.408 24.248-21.831 37.286-18.041 18.592 5.4049 27.021 25.847 17.416 42.237-3.0747 5.2466-10.196 11.607-16.346 14.6-5.7228 2.7847-15.968 3.4686-21.464 1.4329zm23.293-5.9815c2.4699-1.2296 5.9394-4.135 7.71-6.4564 8.4724-11.108 6.6784-26.385-4.2255-35.983-14.919-13.132-38.014-4.1795-40.974 15.884-1.7677 11.981 7.5221 25.052 20.291 28.549 5.7829 1.5839 11.296 0.94482 17.198-1.9936zm191.18 5.2278c-5.7478-2.8451-9.3855-8.4282-9.9534-15.276-0.71173-8.5826 4.4149-16.562 13.285-20.678 4.3583-2.0222 12.831-2.4849 16.935-0.92468 2.5183 0.95746 2.5651 0.89304 2.5651-3.5321 0-9.4554-4.1944-14.443-12.146-14.443-3.6518 0-5.4191 0.60445-7.9198 2.7086-3.6294 3.0539-6.8796 9.421-6.9125 13.541-0.0141 1.768-0.55759 2.75-1.522 2.75-1.2564 0-1.5-2.1111-1.5-13s0.24359-13 1.5-13c1.1321 0 1.5 1.2189 1.5 4.9699v4.9699l3.6372-2.4683c10.135-6.8775 22.268-4.9002 27.809 4.5319 1.8627 3.1708 2.0842 5.4534 2.3772 24.497 0.34863 22.657 0.55903 23.5 5.868 23.5 1.2699 0 2.3089 0.45 2.3089 1 0 0.57778-3.1667 1-7.5 1-4.125 0-7.5-0.40677-7.5-0.90393 0-0.49716-2.2548-0.04716-5.0107 1-6.5506 2.489-12.466 2.4088-17.821-0.2418zm19.464-3.9358 3.368-2.0816v-11.244c0-10.521-0.15165-11.387-2.3587-13.46-5.6257-5.2851-15.269-4.7052-21.252 1.278-3.8067 3.8067-4.9846 8.6646-3.4673 14.3 3.0038 11.155 14.785 16.724 23.71 11.208zm327.37 5.1464c-8.531-2.6044-16.458-9.3944-19.923-17.065-2.492-5.5166-2.6848-13.859-0.47058-20.357 3.3773-9.9117 16.687-20.408 28.099-22.158 9.9588-1.5277 22.021 3.86 27.309 12.198 1.6426 2.5901 2.9865 5.0712 2.9865 5.5135s-11.893 0.80422-26.429 0.80422h-26.429l-1.1666 5.6193c-1.5076 7.2619-0.59238 13.016 2.9614 18.62 3.2236 5.0831 7.8187 8.9178 13.617 11.364 4.9634 2.0937 15.736 2.1756 20.519 0.15604 4.6548-1.9655 10.535-7.1772 13.631-12.081 1.7659-2.7973 2.7732-3.6005 3.5463-2.8274 1.599 1.599-5.2204 11.346-10.46 14.95-7.9245 5.4516-19.805 7.7023-27.79 5.2647zm26.924-47.662c-4.664-4.9968-9.6838-6.8681-18.424-6.8681s-13.76 1.8712-18.424 6.8681l-2.4243 2.5973h41.697zm-482.92 45.597c0-0.55 1.35-1 3-1h3l-0.036-23.25-0.036-23.25-2.338 2.8584c-1.5118 1.8482-2.5842 2.46-3.0347 1.7312-0.87191-1.4109 12.063-17.09 14.099-17.09 1.163 0 1.0214 0.64664-0.6585 3.0058-1.1772 1.6532-1.9953 3.7206-1.8181 4.5943 0.25929 1.2784 1.0646 0.99764 4.1241-1.4377 4.0985-3.2624 8.4468-4.6541 11.676-3.7369 1.1124 0.31598 2.9225 0.82984 4.0225 1.1419 1.628 0.46186 2 0.0899 2-2 0-1.4121 0.45-2.5674 1-2.5674 0.61333 0 1 4.8333 1 12.5 0 6.875-0.39752 12.5-0.88337 12.5-1.1743 0-2.0862-3.6105-2.103-8.3269-0.0103-2.8854-0.7328-4.5461-2.9367-6.75-4.4091-4.4091-8.26-4.0031-13.708 1.4454l-4.3684 4.3684v19.066c0 10.487 0.44257 20.231 0.9835 21.653 0.65745 1.7292 1.9835 2.7868 4 3.1901 6.1041 1.2208 2.7434 2.3533-6.9835 2.3533-6 0-10-0.4-10-1zm208 0c0-0.55 1.35-1 3-1h3v-46.27l-2.1287 2.7062c-1.374 1.7468-2.4723 2.3626-3.0979 1.737-1.1143-1.1143 11.952-17.167 13.977-17.171 1.6987-4e-3 1.5748 1.483-0.25 2.9974-0.825 0.68469-1.5 2.0572-1.5 3.05 0 1.6008 0.66598 1.4616 5.8846-1.2298 4.9443-2.55 6.5478-2.9229 10.035-2.3338 2.2825 0.38563 5.5456 1.8754 7.2513 3.3107 5.2615 4.4272 5.8293 7.1651 5.8293 28.106 0 10.432 0.44257 20.131 0.9835 21.554 0.65745 1.7292 1.9835 2.7868 4 3.1901 6.1041 1.2208 2.7434 2.3533-6.9835 2.3533-6 0-10-0.4-10-1 0-0.55 1.35-1 3-1h3v-20.98c0-17.028-0.30592-21.744-1.624-25.038-2.7036-6.757-10.416-9.0977-15.862-4.8139-4.9264 3.8751-5.5137 6.9391-5.5137 28.765 0 18.747 0.12091 20.062 1.9343 21.032 1.0638 0.56935 2.8638 1.0352 4 1.0352s2.0657 0.45 2.0657 1c0 0.60318-4.1667 1-10.5 1s-10.5-0.39682-10.5-1z"/>
</svg>
