<?xml version="1.0" encoding="UTF-8" standalone="no"?>
<!-- Created with Inkscape (http://www.inkscape.org/) -->
<svg
   xmlns:dc="http://purl.org/dc/elements/1.1/"
   xmlns:cc="http://creativecommons.org/ns#"
   xmlns:rdf="http://www.w3.org/1999/02/22-rdf-syntax-ns#"
   xmlns:svg="http://www.w3.org/2000/svg"
   xmlns="http://www.w3.org/2000/svg"
   xmlns:xlink="http://www.w3.org/1999/xlink"
   xmlns:sodipodi="http://sodipodi.sourceforge.net/DTD/sodipodi-0.dtd"
   xmlns:inkscape="http://www.inkscape.org/namespaces/inkscape"
   width="560"
   height="150"
   id="svg2"
   sodipodi:version="0.32"
   inkscape:version="0.45+0.46pre0+devel"
   version="1.0"
   sodipodi:docname="Slayers anime jp logo.svg"
   inkscape:output_extension="org.inkscape.output.svg.inkscape">
  <defs
     id="defs4">
    <linearGradient
       id="linearGradient3793">
      <stop
         style="stop-color:#2f1b1a;stop-opacity:1;"
         offset="0"
         id="stop3795" />
      <stop
         id="stop3801"
         offset="1"
         style="stop-color:#2f1b1a;stop-opacity:0.49803922;" />
      <stop
         style="stop-color:#2f1b1a;stop-opacity:0;"
         offset="1"
         id="stop3797" />
    </linearGradient>
    <linearGradient
       inkscape:collect="always"
       id="linearGradient3719">
      <stop
         style="stop-color:#000000;stop-opacity:1;"
         offset="0"
         id="stop3721" />
      <stop
         style="stop-color:#000000;stop-opacity:0;"
         offset="1"
         id="stop3723" />
    </linearGradient>
    <inkscape:perspective
       sodipodi:type="inkscape:persp3d"
       inkscape:vp_x="-50 : 600 : 1"
       inkscape:vp_y="0 : 1000 : 0"
       inkscape:vp_z="700 : 600 : 1"
       inkscape:persp3d-origin="300 : 400 : 1"
       id="perspective10" />
    <inkscape:perspective
       id="perspective2395"
       inkscape:persp3d-origin="300 : 400 : 1"
       inkscape:vp_z="700 : 600 : 1"
       inkscape:vp_y="0 : 1000 : 0"
       inkscape:vp_x="-50 : 600 : 1"
       sodipodi:type="inkscape:persp3d" />
    <linearGradient
       inkscape:collect="always"
       xlink:href="#linearGradient3719"
       id="linearGradient3725"
       x1="134.33801"
       y1="549.9115"
       x2="233.03571"
       y2="549.9115"
       gradientUnits="userSpaceOnUse" />
    <linearGradient
       inkscape:collect="always"
       xlink:href="#linearGradient3719"
       id="linearGradient3727"
       x1="232.14285"
       y1="550.48804"
       x2="319.82141"
       y2="550.48804"
       gradientUnits="userSpaceOnUse" />
    <linearGradient
       inkscape:collect="always"
       xlink:href="#linearGradient3719"
       id="linearGradient3729"
       x1="319.46429"
       y1="550.11469"
       x2="401.42856"
       y2="550.11469"
       gradientUnits="userSpaceOnUse" />
    <linearGradient
       inkscape:collect="always"
       xlink:href="#linearGradient3719"
       id="linearGradient3731"
       x1="388.57144"
       y1="550.21936"
       x2="481.42856"
       y2="550.21936"
       gradientUnits="userSpaceOnUse" />
    <linearGradient
       inkscape:collect="always"
       xlink:href="#linearGradient3719"
       id="linearGradient3733"
       x1="474.28571"
       y1="550.31073"
       x2="602.5"
       y2="550.31073"
       gradientUnits="userSpaceOnUse" />
    <linearGradient
       inkscape:collect="always"
       xlink:href="#linearGradient3719"
       id="linearGradient3735"
       x1="598.57141"
       y1="520.04077"
       x2="610.71429"
       y2="520.04077"
       gradientUnits="userSpaceOnUse" />
    <linearGradient
       inkscape:collect="always"
       xlink:href="#linearGradient3719"
       id="linearGradient3737"
       x1="608.92859"
       y1="520.04077"
       x2="621.07141"
       y2="520.04077"
       gradientUnits="userSpaceOnUse" />
  </defs>
  <sodipodi:namedview
     id="base"
     pagecolor="#ffffff"
     bordercolor="#666666"
     borderopacity="1.0"
     inkscape:pageopacity="0.0"
     inkscape:pageshadow="2"
     inkscape:zoom="1.4000714"
     inkscape:cx="384.99249"
     inkscape:cy="113.6203"
     inkscape:document-units="px"
     inkscape:current-layer="layer3"
     showgrid="false"
     inkscape:window-width="1280"
     inkscape:window-height="748"
     inkscape:window-x="-8"
     inkscape:window-y="-8" />
  <metadata
     id="metadata7">
    <rdf:RDF>
      <cc:Work
         rdf:about="">
        <dc:format>image/svg+xml</dc:format>
        <dc:type
           rdf:resource="http://purl.org/dc/dcmitype/StillImage" />
        <dc:title></dc:title>
        <dc:date></dc:date>
        <dc:creator>
          <cc:Agent>
            <dc:title></dc:title>
          </cc:Agent>
        </dc:creator>
        <dc:rights>
          <cc:Agent>
            <dc:title></dc:title>
          </cc:Agent>
        </dc:rights>
        <dc:publisher>
          <cc:Agent>
            <dc:title></dc:title>
          </cc:Agent>
        </dc:publisher>
        <dc:identifier></dc:identifier>
        <dc:source></dc:source>
        <dc:relation></dc:relation>
        <dc:language></dc:language>
        <dc:subject>
          <rdf:Bag />
        </dc:subject>
        <dc:coverage></dc:coverage>
        <dc:description></dc:description>
        <dc:contributor>
          <cc:Agent>
            <dc:title></dc:title>
          </cc:Agent>
        </dc:contributor>
        <cc:license
           rdf:resource="" />
      </cc:Work>
    </rdf:RDF>
  </metadata>
  <g
     inkscape:groupmode="layer"
     id="layer3"
     inkscape:label="C"
     style="display:inline">
    <path
       style="fill:#341d17;fill-opacity:1;fill-rule:evenodd;stroke:none;stroke-width:1px;stroke-linecap:butt;stroke-linejoin:miter;stroke-opacity:1"
       d="M 62.740936,22.320469 L 45.334686,68.289219 L 79.522186,68.289219 C 77.572186,74.710369 71.567136,79.029839 63.615936,79.132969 L 41.553436,79.132969 L 21.834686,128.38297 L 70.834686,128.38297 C 82.250906,127.95465 92.06212,121.73861 100.11594,115.25797 C 106.38587,122.62798 119.1478,128.32191 123.86594,128.38297 L 164.58469,128.38297 C 184.8928,126.46306 201.51998,117.97735 214.99094,100.07047 L 231.83469,100.07047 L 221.33469,128.38297 L 266.36594,128.38297 L 286.74094,77.382969 L 295.08469,77.382969 L 275.89719,128.38297 L 320.99094,128.38297 L 326.49094,114.32047 L 333.08469,114.32047 C 351.33015,112.25084 357.2972,107.3075 365.42844,102.91422 L 399.02219,102.91422 L 389.20969,128.38297 L 433.89719,128.38297 C 448.05747,128.0046 462.09321,123.14976 468.89719,115.28922 C 479.63346,125.70511 488.68636,129.17555 501.14719,128.38297 L 514.92844,88.382969 C 502.59612,85.941559 497.01478,78.460909 498.17844,69.039219 L 517.83469,69.039219 L 536.20969,22.320469 L 431.99094,22.320469 L 418.77219,58.132969 L 387.08469,58.132969 L 396.67844,34.070469 L 358.05344,34.070469 L 361.30344,22.320469 L 268.30344,22.320469 C 260.96142,40.555829 250.16967,50.521929 223.61594,50.976719 L 196.30344,50.976719 L 206.67844,22.320469 L 161.86594,22.320469 L 137.64719,83.601719 C 131.71152,80.615479 127.19989,76.554879 130.67844,66.507969 L 148.86594,22.320469 L 62.740936,22.320469 z M 435.30344,69.601719 L 448.33469,69.601719 C 446.28851,74.594639 442.4204,79.659549 431.55344,78.914219 L 435.30344,69.601719 z"
       id="path3772" />
  </g>
  <g
     inkscape:groupmode="layer"
     id="layer2"
     inkscape:label="B"
     style="display:inline">
    <path
       style="opacity:1;fill:#9e5d15;fill-opacity:1;fill-rule:evenodd;stroke:#8d6641;stroke-width:1.5;marker-start:none;stroke-miterlimit:4;stroke-dasharray:none;stroke-opacity:1"
       d="M 61.718616,58.008539 L 71.897186,32.829969 L 136.1829,32.829969 L 122.96861,64.794249 C 117.29254,82.369389 127.68983,87.917339 135.29005,94.43711 L 125.46862,116.4014 C 115.68513,115.83515 108.97949,107.09706 102.96862,97.65139 C 96.33678,110.81627 86.140706,117.73661 72.842346,117.56846 L 37.485206,117.56846 L 49.218616,89.615679 L 69.397186,89.615679 C 83.642646,89.785509 96.1284,71.808879 99.04005,58.008539 L 61.718616,58.008539 z"
       id="path2402"
       sodipodi:nodetypes="ccccccccccccc" />
    <path
       style="opacity:1;fill:#9e5d15;fill-opacity:1;fill-rule:evenodd;stroke:#8d6641;stroke-width:1.5;marker-start:none;stroke-miterlimit:4;stroke-dasharray:none;stroke-opacity:1"
       d="M 170.29005,32.829969 L 195.29005,32.829969 L 173.50433,89.972829 C 182.89701,90.313569 191.90392,79.287639 199.39719,63.008549 L 222.96861,63.008549 C 211.51042,99.45973 191.74484,118.93103 163.14719,118.72283 L 135.29005,118.72283 L 170.29005,32.829969 z"
       id="path2404"
       sodipodi:nodetypes="cccccccc" />
    <path
       style="opacity:1;fill:#9e5d15;fill-opacity:1;fill-rule:evenodd;stroke:#8d6641;stroke-width:1.5;marker-start:none;stroke-miterlimit:4;stroke-dasharray:none;stroke-opacity:1"
       d="M 276.36148,32.829969 L 304.57576,32.829969 C 300.73488,46.050059 292.00179,57.859579 281.56172,68.722819 L 263.14719,117.9779 L 236.89719,117.9779 L 250.6472,84.794259 C 241.58292,88.146669 232.14831,89.277139 222.61148,89.794249 L 232.79005,61.579969 C 249.59129,60.203849 264.7736,53.637699 276.36148,32.829969 z"
       id="path2406"
       sodipodi:nodetypes="ccccccccc" />
    <path
       style="opacity:1;fill:#9e5d15;fill-opacity:1;fill-rule:evenodd;stroke:#8d6641;stroke-width:1.5;marker-start:none;stroke-miterlimit:4;stroke-dasharray:none;stroke-opacity:1"
       d="M 298.50433,66.758549 L 307.43291,43.901399 L 321.71862,43.901399 L 326.00433,32.829969 L 350.29005,32.829969 L 346.54005,43.901399 L 384.57576,43.901399 L 371.36148,77.829969 C 363.25968,99.99862 348.00002,101.58839 332.43291,102.29426 L 342.07576,77.115689 C 347.09187,75.566499 352.51918,74.736919 353.86148,66.758549 L 336.00433,66.758549 L 317.25433,118.18712 L 291.71862,118.18712 L 312.61148,66.758549 L 298.50433,66.758549 z"
       id="path2408"
       sodipodi:nodetypes="cccccccccccccccc" />
    <path
       style="opacity:1;fill:#9e5d15;fill-opacity:1;fill-rule:evenodd;stroke:#8d6641;stroke-width:1.5;marker-start:none;stroke-miterlimit:4;stroke-dasharray:none;stroke-opacity:1"
       d="M 377.43291,91.937109 L 388.50433,66.937109 L 428.1472,66.937109 L 419.93291,88.365689 L 439.04005,88.365689 C 449.74102,87.999909 464.14631,72.774589 469.21862,58.544259 L 431.18291,58.544259 L 441.18291,32.829969 L 503.50433,32.829969 L 492.25433,62.829969 C 488.32043,77.156479 493.74864,88.621809 505.64719,92.829969 L 496.89719,118.36569 C 487.63831,117.33569 479.87521,112.17045 472.96862,97.82997 C 464.87172,110.89602 449.42276,118.5775 431.89719,118.36569 L 405.46862,118.36569 L 417.07576,91.937109 L 377.43291,91.937109 z"
       id="path2410"
       sodipodi:nodetypes="ccccccccccccccccc" />
    <path
       style="opacity:1;fill:#9e5d15;fill-opacity:1;fill-rule:evenodd;stroke:#8d6641;stroke-width:1.5;marker-start:none;stroke-miterlimit:4;stroke-dasharray:none;stroke-opacity:1;display:inline"
       d="M 510.64719,32.829969 L 513.86148,32.829969 L 504.57576,57.829959 L 501.71862,57.829959 L 510.64719,32.829969 z"
       id="path2412"
       sodipodi:nodetypes="ccccc" />
    <path
       style="opacity:1;fill:#9e5d15;fill-opacity:1;fill-rule:evenodd;stroke:#8d6641;stroke-width:1.5;marker-start:none;stroke-miterlimit:4;stroke-dasharray:none;stroke-opacity:1;display:inline"
       d="M 521.00433,32.829969 L 524.21862,32.829969 L 514.9329,57.829959 L 512.07576,57.829959 L 521.00433,32.829969 z"
       id="path2414"
       sodipodi:nodetypes="ccccc" />
  </g>
</svg>
